<?xml version="1.0" encoding="utf-8"?>
<!-- Generator: Adobe Illustrator 25.0.0, SVG Export Plug-In . SVG Version: 6.00 Build 0)  -->
<svg version="1.1" id="Layer_1" xmlns="http://www.w3.org/2000/svg" xmlns:xlink="http://www.w3.org/1999/xlink" x="0px" y="0px"
	 viewBox="0 0 198.9 78.4" style="enable-background:new 0 0 198.9 78.4;" xml:space="preserve">
<style type="text/css">
	.st0{fill:#FFFFFF;}
	.st1{fill:#005DAC;}
</style>
<g>
	<g>
		<path class="st0" d="M9.5,57.2h3.8c0.7,0,1.2-0.3,1.2-0.8c0-0.5-0.6-0.8-1.2-0.8H7.4v3.9l1-1.6C8.7,57.4,9.1,57.2,9.5,57.2z"/>
		<path class="st0" d="M9.5,61.7h3.8c0.7,0,1.3-0.5,1.3-1.1s-0.6-1.1-1.3-1.1l-5.9,0v4.4l1-1.6C8.7,61.9,9.1,61.7,9.5,61.7z"/>
		<path class="st0" d="M0,0v78.4h78.4V0H0z M25.1,14.6H42c4.3,0,11.3,0.7,11.3,7.4c0,3.3-2.4,5.6-5.3,6.5c3.5,1.3,5.3,3.6,5.3,6.7
			c0,6.9-6.6,7.6-11.3,7.6h-5.7v-4.5c0-2.5,2.1-2.4,2.1-2.4l5.1,0c1.2,0,1.6-1,1.6-1l1.8-3.6l-8.6,0c-1.9,0.2-2.1,2.5-2.1,2.5v-5.9
			c0-2.7,2.2-2.7,2.2-2.7h6.4c1.3,0,1.7-0.8,1.7-0.8l1.9-3.8H31v22.2h-2.4h-3.5V14.6z M13.3,63.9H7.4h0H4V53.3h9.3
			c1.9,0,5,0.3,5,2.8c0,1.2-1.1,2.1-2.3,2.4c1.6,0.5,2.3,1.3,2.3,2.5C18.4,63.6,15.4,63.9,13.3,63.9z M31.3,63.9L30.2,62h-6l1-1.6
			c0.3-0.4,0.7-0.6,1.1-0.6h2.6l-2.3-3.9l-4.6,8h-4l6.5-10.6h4.4l6.5,10.6H31.3z M42.9,63.9h-5.7c-0.4,0-0.9-0.2-1.1-0.6l-1-1.6
			l6.5,0c0.8,0,1.4-0.4,1.4-1.1v-7.2h3.4v7.5C46.4,63.1,44.9,63.9,42.9,63.9z M59.3,63.9L58.3,62h-6l1-1.6c0.3-0.4,0.7-0.6,1.1-0.6
			H57l-2.3-3.9l-4.6,8h-4l6.5-10.6h4.4l6.5,10.6H59.3z M74.5,60.8c0,2.3-1.5,3-3.5,3h-5.7c-0.4,0-0.9-0.2-1.1-0.6l-1-1.6l6.5,0
			c0.8,0,1.4-0.4,1.4-1.1v-7.2h3.4V60.8z"/>
	</g>
	<g>
		<polyline class="st0" points="190.4,46.8 198.9,31.6 193.1,31.6 187.3,43.2 181.4,31.6 175.6,31.6 184.1,46.8 		"/>
		<rect x="102.7" y="31.6" class="st0" width="4.9" height="15.2"/>
		<polygon class="st0" points="121.4,31.6 121.4,40.1 115.6,31.6 109.7,31.6 109.7,46.8 114.6,46.8 114.6,38.4 114.7,38.5 
			120.4,46.8 126.3,46.8 126.3,31.6 		"/>
		<g>
			<path class="st0" d="M177.2,46.8l-3.5-5.9l-0.3-0.5c0.7-0.3,1.3-0.9,1.8-1.5c0.5-0.7,0.8-1.6,0.7-2.4c0-0.6-0.1-1.2-0.3-1.8
				c-0.2-0.6-0.6-1.1-1-1.6c-0.5-0.5-1-0.8-1.7-1.1c-0.7-0.3-1.5-0.4-2.2-0.4h-9.3l1.2,3.2h6.2c0.4,0,0.9,0.1,1.2,0.5
				c0.3,0.3,0.5,0.7,0.4,1.1c0,0.4-0.2,0.8-0.4,1.2c-0.3,0.3-0.8,0.6-1.2,0.6h-5l1.1,3.1h3.3l3.2,5.6H177.2z"/>
		</g>
		<path class="st0" d="M144,42c0-1-0.4-3.8-4.8-4.6l0,0c-0.4-0.1-1-0.1-1.2-0.1c-0.6,0-1.4-0.1-2.5,0l0,0l-0.3,0
			c-0.5,0-1.8-0.1-1.9-1.2c0,0-0.1-1.1,1.5-1.2c0,0,8.4,0,8.4,0v-3.2c0,0-7.2,0-9.6,0c-1.7,0-5.3,0-5.7,3.6l0,0c0,0,0,0,0,0.1
			c0,0,0,0.1,0,0.1c0,0.2,0,0.4,0,0.6c0,0.7,0.3,2.9,3.5,3.9c0,0,1.2,0.5,3.4,0.6c0,0,1.6,0,1.9,0c0,0,1.2,0,1.5,0.8
			c0,0,1,1.8-1.3,2.3c-0.1,0-0.5,0.1-0.9,0.1l0,0h-7.1v3.2h8c0,0,6.3,0.1,7-3.9C144,42.5,144,42.1,144,42z"/>
		<path class="st0" d="M86.3,31.6v15.2H87v0h4.2v0h0v-6.1l4.3,0c1,0,1.3-0.7,1.3-0.7l1.5-2.5l-7.1,0v-0.9c0.1-1.8,1.8-1.9,1.8-1.9
			h5.2c1.1,0,1.4-0.6,1.4-0.6l1.6-2.6H86.3z"/>
		<path class="st0" d="M150.5,36.7v0.9l7,0L156,40c0,0-0.3,0.7-1.3,0.7l-4.2,0l0,1.4c0,0,0,0.1,0,0.3c0.3,0.7,0.9,1.2,1.7,1.2l6.1,0
			h1.3v3.2h-14.2V31.6h14.2v3.2l-7.4,0C151.3,34.8,150.5,35.6,150.5,36.7z"/>
	</g>
</g>
</svg>
