<svg width="162" height="47" fill="none" xmlns="http://www.w3.org/2000/svg">
  <rect x="1.5" y="1" width="159" height="45" rx="15" stroke="#E3E3E3" stroke-width="2" fill="#fff"/>
  <path
    d="M23.57 11.23a.775.775 0 0 1 .86 0 23.329 23.329 0 0 0 9.755 3.753.775.775 0 0 1 .665.767v7.13a8.525 8.525 0 0 0-10.512 12.946l-.059.023a.776.776 0 0 1-.558 0c-6.994-2.692-10.571-7.094-10.571-13.124V15.75a.775.775 0 0 1 .666-.767 23.328 23.328 0 0 0 9.755-3.753Z"
    fill="#00C838"/>
  <path
    d="M37.95 30.475a6.975 6.975 0 1 0-13.95 0 6.975 6.975 0 0 0 13.95 0Zm-3.326-2.874a.775.775 0 0 1 0 1.098l-4.65 4.65a.775.775 0 0 1-1.098 0l-1.55-1.55a.776.776 0 0 1 1.098-1.098l1.001 1.003 4.101-4.103a.775.775 0 0 1 1.098 0Z"
    fill="#017722"/>
  <path
    d="M52.508 23.192a9.443 9.443 0 0 1-2.576-.352c-.821-.245-1.483-.56-1.984-.944l.88-1.952c.48.352 1.05.635 1.712.848.661.213 1.323.32 1.984.32.736 0 1.28-.107 1.632-.32.352-.224.528-.517.528-.88a.803.803 0 0 0-.32-.656 2.194 2.194 0 0 0-.8-.432 15.04 15.04 0 0 0-1.312-.352c-.853-.203-1.552-.405-2.096-.608a3.467 3.467 0 0 1-1.408-.976c-.384-.448-.576-1.045-.576-1.792 0-.65.176-1.237.528-1.76.352-.533.88-.955 1.584-1.264.715-.31 1.584-.464 2.608-.464.715 0 1.413.085 2.096.256.683.17 1.28.416 1.792.736l-.8 1.968c-1.035-.587-2.07-.88-3.104-.88-.725 0-1.264.117-1.616.352-.341.235-.512.544-.512.928s.197.672.592.864c.405.181 1.019.363 1.84.544.853.203 1.552.405 2.096.608a3.41 3.41 0 0 1 1.392.96c.395.437.592 1.03.592 1.776 0 .64-.181 1.227-.544 1.76-.352.523-.885.939-1.6 1.248-.715.31-1.584.464-2.608.464Zm10.203 0a9.443 9.443 0 0 1-2.576-.352c-.821-.245-1.482-.56-1.984-.944l.88-1.952c.48.352 1.05.635 1.712.848.661.213 1.323.32 1.984.32.736 0 1.28-.107 1.632-.32.352-.224.528-.517.528-.88a.803.803 0 0 0-.32-.656 2.193 2.193 0 0 0-.8-.432 15.04 15.04 0 0 0-1.312-.352c-.853-.203-1.552-.405-2.096-.608a3.467 3.467 0 0 1-1.408-.976c-.384-.448-.576-1.045-.576-1.792 0-.65.176-1.237.528-1.76.352-.533.88-.955 1.584-1.264.715-.31 1.584-.464 2.608-.464.715 0 1.413.085 2.096.256.683.17 1.28.416 1.792.736l-.8 1.968c-1.035-.587-2.07-.88-3.104-.88-.725 0-1.264.117-1.616.352-.341.235-.512.544-.512.928s.197.672.592.864c.406.181 1.019.363 1.84.544.854.203 1.552.405 2.096.608a3.41 3.41 0 0 1 1.392.96c.395.437.592 1.03.592 1.776 0 .64-.181 1.227-.544 1.76-.352.523-.885.939-1.6 1.248-.715.31-1.584.464-2.608.464ZM69.234 11.8h2.592v9.088h5.616V23h-8.208V11.8Z"
    fill="#000"/>
  <path
    d="M50.57 37.06a4.54 4.54 0 0 1-1.5-.25c-.473-.167-.84-.387-1.1-.66l.29-.57c.253.253.59.46 1.01.62.42.153.853.23 1.3.23.627 0 1.097-.113 1.41-.34.313-.233.47-.533.47-.9 0-.28-.087-.503-.26-.67a1.622 1.622 0 0 0-.62-.38 9.159 9.159 0 0 0-1.03-.3c-.527-.133-.947-.26-1.26-.38a2.16 2.16 0 0 1-.81-.57c-.22-.253-.33-.597-.33-1.03 0-.353.093-.673.28-.96.187-.293.473-.527.86-.7.387-.173.867-.26 1.44-.26.4 0 .79.057 1.17.17.387.107.72.257 1 .45l-.25.59a3.33 3.33 0 0 0-.94-.43 3.4 3.4 0 0 0-.98-.15c-.613 0-1.077.12-1.39.36-.307.233-.46.537-.46.91 0 .28.083.507.25.68.173.167.387.297.64.39.26.087.607.183 1.04.29.513.127.927.253 1.24.38.32.12.59.307.81.56.22.247.33.583.33 1.01 0 .353-.097.677-.29.97-.187.287-.477.517-.87.69-.393.167-.877.25-1.45.25Zm8.652-2.47h-4.4c.04.547.25.99.63 1.33.38.333.86.5 1.44.5.327 0 .627-.057.9-.17.274-.12.51-.293.71-.52l.4.46c-.233.28-.526.493-.88.64-.346.147-.73.22-1.15.22-.54 0-1.02-.113-1.44-.34a2.532 2.532 0 0 1-.97-.96 2.723 2.723 0 0 1-.35-1.38c0-.513.11-.973.33-1.38.227-.407.534-.723.92-.95.394-.227.834-.34 1.32-.34.487 0 .924.113 1.31.34.387.227.69.543.91.95.22.4.33.86.33 1.38l-.01.22Zm-2.54-2.28c-.506 0-.933.163-1.28.49-.34.32-.533.74-.58 1.26h3.73c-.046-.52-.243-.94-.59-1.26-.34-.327-.766-.49-1.28-.49Zm6.175 4.74c-.52 0-.986-.113-1.4-.34a2.48 2.48 0 0 1-.96-.95 2.778 2.778 0 0 1-.35-1.39c0-.513.117-.973.35-1.38a2.48 2.48 0 0 1 .96-.95c.414-.227.88-.34 1.4-.34.454 0 .857.09 1.21.27.36.173.644.43.85.77l-.53.36a1.62 1.62 0 0 0-.66-.58 1.919 1.919 0 0 0-.87-.2c-.38 0-.723.087-1.03.26a1.8 1.8 0 0 0-.71.72c-.166.313-.25.67-.25 1.07 0 .407.084.767.25 1.08.174.307.41.547.71.72.307.167.65.25 1.03.25.314 0 .604-.063.87-.19a1.62 1.62 0 0 0 .66-.58l.53.36c-.206.34-.49.6-.85.78-.36.173-.763.26-1.21.26Zm8.195-5.31V37h-.68v-.96c-.186.32-.443.57-.77.75-.326.173-.7.26-1.12.26-.686 0-1.23-.19-1.63-.57-.393-.387-.59-.95-.59-1.69v-3.05h.71v2.98c0 .553.137.973.41 1.26.274.287.664.43 1.17.43.554 0 .99-.167 1.31-.5.32-.34.48-.81.48-1.41v-2.76h.71Zm2.669 1.03c.166-.353.413-.62.74-.8.333-.18.743-.27 1.23-.27v.69l-.17-.01c-.554 0-.987.17-1.3.51-.314.34-.47.817-.47 1.43V37h-.71v-5.26h.68v1.03Zm7.786 1.82h-4.4c.04.547.25.99.63 1.33.38.333.86.5 1.44.5.327 0 .627-.057.9-.17.274-.12.51-.293.71-.52l.4.46c-.233.28-.526.493-.88.64-.346.147-.73.22-1.15.22-.54 0-1.02-.113-1.44-.34a2.532 2.532 0 0 1-.97-.96 2.723 2.723 0 0 1-.35-1.38c0-.513.11-.973.33-1.38.227-.407.534-.723.92-.95.394-.227.834-.34 1.32-.34.487 0 .924.113 1.31.34.387.227.69.543.91.95.22.4.33.86.33 1.38l-.01.22Zm-2.54-2.28c-.506 0-.933.163-1.28.49-.34.32-.533.74-.58 1.26h3.73c-.046-.52-.243-.94-.59-1.26-.34-.327-.766-.49-1.28-.49Zm9.803 4.75c-.694 0-1.32-.153-1.88-.46a3.426 3.426 0 0 1-1.31-1.27 3.614 3.614 0 0 1-.47-1.83c0-.673.156-1.28.47-1.82.32-.547.76-.973 1.32-1.28a3.849 3.849 0 0 1 1.88-.46c.52 0 1 .087 1.44.26.44.173.813.427 1.12.76l-.47.47c-.547-.553-1.237-.83-2.07-.83-.553 0-1.057.127-1.51.38-.454.253-.81.6-1.07 1.04-.254.44-.38.933-.38 1.48 0 .547.126 1.04.38 1.48.26.44.617.787 1.07 1.04.453.253.956.38 1.51.38.84 0 1.53-.28 2.07-.84l.47.47a3.07 3.07 0 0 1-1.13.77c-.44.173-.92.26-1.44.26Zm5.913-.01c-.507 0-.963-.113-1.37-.34a2.551 2.551 0 0 1-.96-.96 2.722 2.722 0 0 1-.35-1.38c0-.513.117-.973.35-1.38a2.48 2.48 0 0 1 .96-.95c.407-.227.863-.34 1.37-.34.507 0 .963.113 1.37.34.407.227.723.543.95.95.233.407.35.867.35 1.38 0 .513-.117.973-.35 1.38a2.48 2.48 0 0 1-.95.96c-.407.227-.863.34-1.37.34Zm0-.63c.373 0 .707-.083 1-.25.3-.173.533-.417.7-.73.167-.313.25-.67.25-1.07s-.083-.757-.25-1.07a1.737 1.737 0 0 0-.7-.72 1.929 1.929 0 0 0-1-.26c-.373 0-.71.087-1.01.26a1.82 1.82 0 0 0-.7.72c-.167.313-.25.67-.25 1.07s.083.757.25 1.07c.173.313.407.557.7.73.3.167.637.25 1.01.25Zm6.8-4.72c.66 0 1.183.193 1.57.58.393.38.59.937.59 1.67V37h-.71v-2.98c0-.547-.137-.963-.41-1.25-.274-.287-.664-.43-1.17-.43-.567 0-1.017.17-1.35.51-.327.333-.49.797-.49 1.39V37h-.71v-5.26h.68v.97c.193-.32.46-.567.8-.74.346-.18.746-.27 1.2-.27Zm6.767 0c.66 0 1.183.193 1.57.58.393.38.59.937.59 1.67V37h-.71v-2.98c0-.547-.137-.963-.41-1.25-.273-.287-.663-.43-1.17-.43-.567 0-1.017.17-1.35.51-.327.333-.49.797-.49 1.39V37h-.71v-5.26h.68v.97c.193-.32.46-.567.8-.74a2.57 2.57 0 0 1 1.2-.27Zm8.687 2.89h-4.4c.04.547.25.99.63 1.33.38.333.86.5 1.44.5.327 0 .627-.057.9-.17.274-.12.51-.293.71-.52l.4.46c-.233.28-.526.493-.88.64a2.92 2.92 0 0 1-1.15.22c-.54 0-1.02-.113-1.44-.34a2.538 2.538 0 0 1-.97-.96 2.726 2.726 0 0 1-.35-1.38c0-.513.11-.973.33-1.38a2.48 2.48 0 0 1 .92-.95c.394-.227.834-.34 1.32-.34.487 0 .924.113 1.31.34a2.4 2.4 0 0 1 .91.95c.22.4.33.86.33 1.38l-.01.22Zm-2.54-2.28c-.506 0-.933.163-1.28.49-.34.32-.533.74-.58 1.26h3.73c-.046-.52-.243-.94-.59-1.26-.34-.327-.766-.49-1.28-.49Zm6.175 4.74c-.52 0-.986-.113-1.4-.34a2.49 2.49 0 0 1-.96-.95 2.781 2.781 0 0 1-.35-1.39c0-.513.117-.973.35-1.38a2.49 2.49 0 0 1 .96-.95c.414-.227.88-.34 1.4-.34.454 0 .857.09 1.21.27.36.173.644.43.85.77l-.53.36a1.617 1.617 0 0 0-.66-.58 1.914 1.914 0 0 0-.87-.2c-.38 0-.723.087-1.03.26-.3.167-.536.407-.71.72a2.25 2.25 0 0 0-.25 1.07c0 .407.084.767.25 1.08.174.307.41.547.71.72.307.167.65.25 1.03.25.314 0 .604-.063.87-.19.267-.127.487-.32.66-.58l.53.36c-.206.34-.49.6-.85.78-.36.173-.763.26-1.21.26Zm6.284-.37c-.134.12-.3.213-.5.28-.194.06-.397.09-.61.09-.494 0-.874-.133-1.14-.4-.267-.267-.4-.643-.4-1.13v-3.18h-.94v-.6h.94v-1.15h.71v1.15h1.6v.6h-1.6v3.14c0 .313.076.553.23.72.16.16.386.24.68.24.146 0 .286-.023.42-.07.14-.047.26-.113.36-.2l.25.51Zm1.292-4.94h.71V37h-.71v-5.26Zm.36-1.15a.504.504 0 0 1-.37-.15.491.491 0 0 1 0-.71c.1-.1.224-.15.37-.15.147 0 .27.05.37.15.1.093.15.207.15.34 0 .147-.05.27-.15.37-.1.1-.223.15-.37.15Zm4.476 6.46c-.507 0-.964-.113-1.37-.34a2.547 2.547 0 0 1-.96-.96 2.716 2.716 0 0 1-.35-1.38c0-.513.116-.973.35-1.38.233-.407.553-.723.96-.95.406-.227.863-.34 1.37-.34.506 0 .963.113 1.37.34.406.227.723.543.95.95.233.407.35.867.35 1.38 0 .513-.117.973-.35 1.38a2.487 2.487 0 0 1-.95.96c-.407.227-.864.34-1.37.34Zm0-.63a1.99 1.99 0 0 0 1-.25c.3-.173.533-.417.7-.73.166-.313.25-.67.25-1.07s-.084-.757-.25-1.07a1.738 1.738 0 0 0-.7-.72 1.931 1.931 0 0 0-1-.26c-.374 0-.71.087-1.01.26a1.814 1.814 0 0 0-.7.72 2.24 2.24 0 0 0-.25 1.07c0 .4.083.757.25 1.07.173.313.406.557.7.73.3.167.636.25 1.01.25Zm6.799-4.72c.66 0 1.184.193 1.57.58.394.38.59.937.59 1.67V37h-.71v-2.98c0-.547-.136-.963-.41-1.25-.273-.287-.663-.43-1.17-.43-.566 0-1.016.17-1.35.51-.326.333-.49.797-.49 1.39V37h-.71v-5.26h.68v.97c.194-.32.46-.567.8-.74a2.57 2.57 0 0 1 1.2-.27Z"
    fill="#767272"/>
</svg>
